# OBJ generated by ONSHAPE BY PTC INC, 1.196 Units = meters
mtllib Log.mtl
g Part 1
v 0.00057914 0.0510277 0.0053251 
v 0.00115149 0.0510277 0.00523127 
v 0.00171034 0.0510277 0.00507611 
v 0.00224914 0.0510277 0.00486143 
v 0.00276157 0.0510277 0.00458976 
v 0.00324162 0.0510277 0.00426428 
v 0.00368366 0.0510277 0.0038888 
v 0.00408252 0.0510277 0.00346773 
v 0.00443352 0.0510277 0.003006 
v 0.00473254 0.0510277 0.00250903 
v 0.00497607 0.0510277 0.00198265 
v 0.00516126 0.0510277 0.00143302 
v 0.00528594 0.0510277 0.000866586 
v 0.00534865 0.0510277 0.000289995 
v 0.00534865 0.0510277 -0.000289995 
v 0.00528594 0.0510277 -0.000866586 
v 0.00516126 0.0510277 -0.00143302 
v 0.00497607 0.0510277 -0.00198265 
v 0.00473254 0.0510277 -0.00250903 
v 0.00443352 0.0510277 -0.003006 
v 0.00408252 0.0510277 -0.00346773 
v 0.00368366 0.0510277 -0.0038888 
v 0.00324162 0.0510277 -0.00426428 
v 0.00276157 0.0510277 -0.00458976 
v 0.00224914 0.0510277 -0.00486143 
v 0.00171034 0.0510277 -0.00507611 
v 0.00115149 0.0510277 -0.00523127 
v 0.00057914 0.0510277 -0.0053251 
v 6.55983e-19 0.0510277 -0.0053565 
v -0.00057914 0.0510277 -0.0053251 
v -0.00115149 0.0510277 -0.00523127 
v -0.00171034 0.0510277 -0.00507611 
v -0.00224914 0.0510277 -0.00486143 
v -0.00276157 0.0510277 -0.00458976 
v -0.00324162 0.0510277 -0.00426428 
v -0.00368366 0.0510277 -0.0038888 
v -0.00408252 0.0510277 -0.00346773 
v -0.00443352 0.0510277 -0.003006 
v -0.00473254 0.0510277 -0.00250903 
v -0.00497607 0.0510277 -0.00198265 
v -0.00516126 0.0510277 -0.00143302 
v -0.00528594 0.0510277 -0.000866586 
v -0.00534865 0.0510277 -0.000289995 
v -0.00534865 0.0510277 0.000289995 
v -0.00528594 0.0510277 0.000866586 
v -0.00516126 0.0510277 0.00143302 
v -0.00497607 0.0510277 0.00198265 
v -0.00473254 0.0510277 0.00250903 
v -0.00443352 0.0510277 0.003006 
v -0.00408252 0.0510277 0.00346773 
v -0.00368366 0.0510277 0.0038888 
v -0.00324162 0.0510277 0.00426428 
v -0.00276157 0.0510277 0.00458976 
v -0.00224914 0.0510277 0.00486143 
v -0.00171034 0.0510277 0.00507611 
v -0.00115149 0.0510277 0.00523127 
v -0.00057914 0.0510277 0.0053251 
v 0 0.0510277 0.0053565 
v 0 0.0510277 0 
v -1.31197e-18 -0.0187008 0.0053565 
v 0.00057914 -0.0187008 0.0053251 
v 0.00115149 -0.0187008 0.00523127 
v 0.00171034 -0.0187008 0.00507611 
v 0.00224914 -0.0187008 0.00486143 
v 0.00276157 -0.0187008 0.00458976 
v 0.00324162 -0.0187008 0.00426428 
v 0.00368366 -0.0187008 0.0038888 
v 0.00408252 -0.0187008 0.00346773 
v 0.00443352 -0.0187008 0.003006 
v 0.00473254 -0.0187008 0.00250903 
v 0.00497607 -0.0187008 0.00198265 
v 0.00516126 -0.0187008 0.00143302 
v 0.00528594 -0.0187008 0.000866586 
v 0.00534865 -0.0187008 0.000289995 
v 0.00534865 -0.0187008 -0.000289995 
v 0.00528594 -0.0187008 -0.000866586 
v 0.00516126 -0.0187008 -0.00143302 
v 0.00497607 -0.0187008 -0.00198265 
v 0.00473254 -0.0187008 -0.00250903 
v 0.00443352 -0.0187008 -0.003006 
v 0.00408252 -0.0187008 -0.00346773 
v 0.00368366 -0.0187008 -0.0038888 
v 0.00324162 -0.0187008 -0.00426428 
v 0.00276157 -0.0187008 -0.00458976 
v 0.00224914 -0.0187008 -0.00486143 
v 0.00171034 -0.0187008 -0.00507611 
v 0.00115149 -0.0187008 -0.00523127 
v 0.00057914 -0.0187008 -0.0053251 
v 6.55983e-19 -0.0187008 -0.0053565 
v -0.00057914 -0.0187008 -0.0053251 
v -0.00115149 -0.0187008 -0.00523127 
v -0.00171034 -0.0187008 -0.00507611 
v -0.00224914 -0.0187008 -0.00486143 
v -0.00276157 -0.0187008 -0.00458976 
v -0.00324162 -0.0187008 -0.00426428 
v -0.00368366 -0.0187008 -0.0038888 
v -0.00408252 -0.0187008 -0.00346773 
v -0.00443352 -0.0187008 -0.003006 
v -0.00473254 -0.0187008 -0.00250903 
v -0.00497607 -0.0187008 -0.00198265 
v -0.00516126 -0.0187008 -0.00143302 
v -0.00528594 -0.0187008 -0.000866586 
v -0.00534865 -0.0187008 -0.000289995 
v -0.00534865 -0.0187008 0.000289995 
v -0.00528594 -0.0187008 0.000866586 
v -0.00516126 -0.0187008 0.00143302 
v -0.00497607 -0.0187008 0.00198265 
v -0.00473254 -0.0187008 0.00250903 
v -0.00443352 -0.0187008 0.003006 
v -0.00408252 -0.0187008 0.00346773 
v -0.00368366 -0.0187008 0.0038888 
v -0.00324162 -0.0187008 0.00426428 
v -0.00276157 -0.0187008 0.00458976 
v -0.00224914 -0.0187008 0.00486143 
v -0.00171034 -0.0187008 0.00507611 
v -0.00115149 -0.0187008 0.00523127 
v -0.00057914 -0.0187008 0.0053251 
v 0 -0.0187008 0 
vn 0 1 0 
vn 0 0 1 
vn 0.108119 0 0.994138 
vn 0.21497 0 0.976621 
vn 0.319302 0 0.947653 
vn 0.419889 0 0.907575 
vn 0.515554 0 0.856857 
vn 0.605174 0 0.796093 
vn 0.687699 0 0.725995 
vn 0.762162 0 0.647386 
vn 0.827689 0 0.561187 
vn 0.883512 0 0.468408 
vn 0.928977 0 0.370138 
vn 0.96355 0 0.267528 
vn 0.986827 0 0.161782 
vn 0.998533 0 0.0541389 
vn 0.998533 0 -0.0541389 
vn 0.986827 0 -0.161782 
vn 0.96355 0 -0.267528 
vn 0.928977 0 -0.370138 
vn 0.883512 0 -0.468408 
vn 0.827689 0 -0.561187 
vn 0.762162 0 -0.647386 
vn 0.687699 0 -0.725995 
vn 0.605174 0 -0.796093 
vn 0.515554 0 -0.856857 
vn 0.419889 0 -0.907575 
vn 0.319302 0 -0.947653 
vn 0.21497 0 -0.976621 
vn 0.108119 0 -0.994138 
vn 1.22465e-16 0 -1 
vn -0.108119 0 -0.994138 
vn -0.21497 0 -0.976621 
vn -0.319302 0 -0.947653 
vn -0.419889 0 -0.907575 
vn -0.515554 0 -0.856857 
vn -0.605174 0 -0.796093 
vn -0.687699 0 -0.725995 
vn -0.762162 0 -0.647386 
vn -0.827689 0 -0.561187 
vn -0.883512 0 -0.468408 
vn -0.928977 0 -0.370138 
vn -0.96355 0 -0.267528 
vn -0.986827 0 -0.161782 
vn -0.998533 0 -0.0541389 
vn -0.998533 0 0.0541389 
vn -0.986827 0 0.161782 
vn -0.96355 0 0.267528 
vn -0.928977 0 0.370138 
vn -0.883512 0 0.468408 
vn -0.827689 0 0.561187 
vn -0.762162 0 0.647386 
vn -0.687699 0 0.725995 
vn -0.605174 0 0.796093 
vn -0.515554 0 0.856857 
vn -0.419889 0 0.907575 
vn -0.319302 0 0.947653 
vn -0.21497 0 0.976621 
vn -0.108119 0 0.994138 
vn 0 -1 0 
usemtl 0.615686_0.811765_0.929412_0.000000_0.000000
o mesh0
f 59//1 1//1 2//1 
f 2//1 3//1 59//1 
f 3//1 4//1 59//1 
f 4//1 5//1 59//1 
f 5//1 6//1 59//1 
f 6//1 7//1 59//1 
f 7//1 8//1 59//1 
f 8//1 9//1 59//1 
f 9//1 10//1 59//1 
f 10//1 11//1 59//1 
f 11//1 12//1 59//1 
f 12//1 13//1 59//1 
f 13//1 14//1 59//1 
f 14//1 15//1 59//1 
f 15//1 16//1 59//1 
f 16//1 17//1 59//1 
f 17//1 18//1 59//1 
f 18//1 19//1 59//1 
f 19//1 20//1 59//1 
f 20//1 21//1 59//1 
f 21//1 22//1 59//1 
f 22//1 23//1 59//1 
f 23//1 24//1 59//1 
f 24//1 25//1 59//1 
f 25//1 26//1 59//1 
f 26//1 27//1 59//1 
f 27//1 28//1 59//1 
f 28//1 29//1 59//1 
f 29//1 30//1 59//1 
f 30//1 31//1 59//1 
f 31//1 32//1 59//1 
f 32//1 33//1 59//1 
f 33//1 34//1 59//1 
f 34//1 35//1 59//1 
f 35//1 36//1 59//1 
f 36//1 37//1 59//1 
f 37//1 38//1 59//1 
f 38//1 39//1 59//1 
f 39//1 40//1 59//1 
f 40//1 41//1 59//1 
f 41//1 42//1 59//1 
f 42//1 43//1 59//1 
f 43//1 44//1 59//1 
f 44//1 45//1 59//1 
f 45//1 46//1 59//1 
f 46//1 47//1 59//1 
f 47//1 48//1 59//1 
f 48//1 49//1 59//1 
f 49//1 50//1 59//1 
f 50//1 51//1 59//1 
f 51//1 52//1 59//1 
f 52//1 53//1 59//1 
f 53//1 54//1 59//1 
f 54//1 55//1 59//1 
f 55//1 56//1 59//1 
f 56//1 57//1 59//1 
f 57//1 58//1 59//1 
f 58//1 1//1 59//1 
o mesh1
f 58//2 60//2 61//3 
f 1//3 61//3 62//4 
f 2//4 62//4 63//5 
f 3//5 63//5 64//6 
f 4//6 64//6 65//7 
f 5//7 65//7 66//8 
f 6//8 66//8 67//9 
f 7//9 67//9 68//10 
f 8//10 68//10 69//11 
f 9//11 69//11 70//12 
f 10//12 70//12 71//13 
f 11//13 71//13 72//14 
f 12//14 72//14 73//15 
f 13//15 73//15 74//16 
f 14//16 74//16 75//17 
f 15//17 75//17 76//18 
f 16//18 76//18 77//19 
f 17//19 77//19 78//20 
f 18//20 78//20 79//21 
f 19//21 79//21 80//22 
f 20//22 80//22 81//23 
f 21//23 81//23 82//24 
f 22//24 82//24 83//25 
f 23//25 83//25 84//26 
f 24//26 84//26 85//27 
f 25//27 85//27 86//28 
f 26//28 86//28 87//29 
f 27//29 87//29 88//30 
f 28//30 88//30 89//31 
f 29//31 89//31 90//32 
f 30//32 90//32 91//33 
f 31//33 91//33 92//34 
f 32//34 92//34 93//35 
f 33//35 93//35 94//36 
f 34//36 94//36 95//37 
f 35//37 95//37 96//38 
f 36//38 96//38 97//39 
f 37//39 97//39 98//40 
f 38//40 98//40 99//41 
f 39//41 99//41 100//42 
f 40//42 100//42 101//43 
f 41//43 101//43 102//44 
f 42//44 102//44 103//45 
f 43//45 103//45 104//46 
f 44//46 104//46 105//47 
f 45//47 105//47 106//48 
f 46//48 106//48 107//49 
f 47//49 107//49 108//50 
f 48//50 108//50 109//51 
f 49//51 109//51 110//52 
f 50//52 110//52 111//53 
f 51//53 111//53 112//54 
f 52//54 112//54 113//55 
f 53//55 113//55 114//56 
f 54//56 114//56 115//57 
f 55//57 115//57 116//58 
f 56//58 116//58 117//59 
f 57//59 117//59 60//2 
f 60//2 58//2 57//59 
f 117//59 57//59 56//58 
f 116//58 56//58 55//57 
f 115//57 55//57 54//56 
f 114//56 54//56 53//55 
f 113//55 53//55 52//54 
f 112//54 52//54 51//53 
f 111//53 51//53 50//52 
f 110//52 50//52 49//51 
f 109//51 49//51 48//50 
f 108//50 48//50 47//49 
f 107//49 47//49 46//48 
f 106//48 46//48 45//47 
f 105//47 45//47 44//46 
f 104//46 44//46 43//45 
f 103//45 43//45 42//44 
f 102//44 42//44 41//43 
f 101//43 41//43 40//42 
f 100//42 40//42 39//41 
f 99//41 39//41 38//40 
f 98//40 38//40 37//39 
f 97//39 37//39 36//38 
f 96//38 36//38 35//37 
f 95//37 35//37 34//36 
f 94//36 34//36 33//35 
f 93//35 33//35 32//34 
f 92//34 32//34 31//33 
f 91//33 31//33 30//32 
f 90//32 30//32 29//31 
f 89//31 29//31 28//30 
f 88//30 28//30 27//29 
f 87//29 27//29 26//28 
f 86//28 26//28 25//27 
f 85//27 25//27 24//26 
f 84//26 24//26 23//25 
f 83//25 23//25 22//24 
f 82//24 22//24 21//23 
f 81//23 21//23 20//22 
f 80//22 20//22 19//21 
f 79//21 19//21 18//20 
f 78//20 18//20 17//19 
f 77//19 17//19 16//18 
f 76//18 16//18 15//17 
f 75//17 15//17 14//16 
f 74//16 14//16 13//15 
f 73//15 13//15 12//14 
f 72//14 12//14 11//13 
f 71//13 11//13 10//12 
f 70//12 10//12 9//11 
f 69//11 9//11 8//10 
f 68//10 8//10 7//9 
f 67//9 7//9 6//8 
f 66//8 6//8 5//7 
f 65//7 5//7 4//6 
f 64//6 4//6 3//5 
f 63//5 3//5 2//4 
f 62//4 2//4 1//3 
f 61//3 1//3 58//2 
o mesh2
f 118//60 117//60 116//60 
f 116//60 115//60 118//60 
f 115//60 114//60 118//60 
f 114//60 113//60 118//60 
f 113//60 112//60 118//60 
f 112//60 111//60 118//60 
f 111//60 110//60 118//60 
f 110//60 109//60 118//60 
f 109//60 108//60 118//60 
f 108//60 107//60 118//60 
f 107//60 106//60 118//60 
f 106//60 105//60 118//60 
f 105//60 104//60 118//60 
f 104//60 103//60 118//60 
f 103//60 102//60 118//60 
f 102//60 101//60 118//60 
f 101//60 100//60 118//60 
f 100//60 99//60 118//60 
f 99//60 98//60 118//60 
f 98//60 97//60 118//60 
f 97//60 96//60 118//60 
f 96//60 95//60 118//60 
f 95//60 94//60 118//60 
f 94//60 93//60 118//60 
f 93//60 92//60 118//60 
f 92//60 91//60 118//60 
f 91//60 90//60 118//60 
f 90//60 89//60 118//60 
f 89//60 88//60 118//60 
f 88//60 87//60 118//60 
f 87//60 86//60 118//60 
f 86//60 85//60 118//60 
f 85//60 84//60 118//60 
f 84//60 83//60 118//60 
f 83//60 82//60 118//60 
f 82//60 81//60 118//60 
f 81//60 80//60 118//60 
f 80//60 79//60 118//60 
f 79//60 78//60 118//60 
f 78//60 77//60 118//60 
f 77//60 76//60 118//60 
f 76//60 75//60 118//60 
f 75//60 74//60 118//60 
f 74//60 73//60 118//60 
f 73//60 72//60 118//60 
f 72//60 71//60 118//60 
f 71//60 70//60 118//60 
f 70//60 69//60 118//60 
f 69//60 68//60 118//60 
f 68//60 67//60 118//60 
f 67//60 66//60 118//60 
f 66//60 65//60 118//60 
f 65//60 64//60 118//60 
f 64//60 63//60 118//60 
f 63//60 62//60 118//60 
f 62//60 61//60 118//60 
f 61//60 60//60 118//60 
f 60//60 117//60 118//60 
