# OBJ generated by ONSHAPE BY PTC INC, 1.196 Units = meters
mtllib Rock.mtl
g Part 1
v -0.0218959 -0.0190767 0.014 
v -0.0343004 0 0.014 
v -0.0343004 0 0.0057735 
v -0.0218959 -0.0190767 0.0057735 
v -0.0312376 0.00378062 0.00310117 
v -0.0243811 0.00308943 0 
v -0.0090616 -0.0204701 0 
v -0.0225523 0.0145016 0.01 
v -0.0270217 0.00898471 0.025 
v -0.0225523 0.0145016 0.025 
v -0.0155194 -0.00870433 0.025 
v 0.0130741 -0.0118088 0.025 
v -0.0150079 0.0173958 0.025 
v -0.00829643 0.0199705 0.0183776 
v -0.00829643 0.0199705 0.01 
v -0.00748432 0.00957149 0 
v -0.00535561 0.0191205 0.00815299 
v -0.00180688 0.0180947 0.015 
v -0.00180688 0.0180947 0.01 
v 0.0223527 -0.00703071 0.015 
v 0.0173502 -0.0139091 0.0233735 
v 0.0223527 -0.00703071 0.01 
v 0.00465965 -0.0219598 0.014 
v 0.0147431 -0.017494 0.0195281 
v -0.000465145 -0.0214034 0 
v 0.00465965 -0.0219598 0.00447187 
v 0.0147431 -0.017494 0.01 
v 0.00933834 -0.00792365 0 
vn -0.838349 -0.545133 0 
vn -0.419175 -0.272567 -0.866025 
vn -0.777016 0.629481 0 
vn -0.592802 -0.385468 0.707107 
vn 0 0 1 
vn -0.358175 0.933655 0 
vn -0.253268 0.660193 -0.707107 
vn 0.277694 0.96067 0 
vn 0.5097 0.490108 0.707107 
vn 0.720825 0.693118 0 
vn -0.0763231 -0.702976 0.707107 
vn -0.107937 -0.994158 0 
vn 0.808736 -0.588172 0 
vn 0 0 -1 
vn 0.5097 0.490108 -0.707107 
vn 0.571863 -0.4159 -0.707107 
vn 0.404952 -0.914338 0 
usemtl 0.615686_0.811765_0.929412_0.000000_0.000000
o mesh0
f 1//1 2//1 3//1 
f 3//1 4//1 1//1 
o mesh1
f 4//2 5//2 6//2 
f 4//2 3//2 5//2 
f 6//2 7//2 4//2 
o mesh2
f 2//3 8//3 5//3 
f 5//3 3//3 2//3 
f 2//3 9//3 8//3 
f 9//3 10//3 8//3 
o mesh3
f 2//4 1//4 11//4 
f 11//4 9//4 2//4 
o mesh4
f 10//5 9//5 11//5 
f 12//5 13//5 10//5 
f 11//5 12//5 10//5 
o mesh5
f 8//6 13//6 14//6 
f 8//6 10//6 13//6 
f 14//6 15//6 8//6 
o mesh6
f 16//7 6//7 8//7 
f 8//7 15//7 16//7 
f 15//7 17//7 16//7 
f 6//7 5//7 8//7 
o mesh7
f 17//8 14//8 18//8 
f 18//8 19//8 17//8 
f 17//8 15//8 14//8 
o mesh8
f 12//9 20//9 18//9 
f 18//9 14//9 12//9 
f 14//9 13//9 12//9 
f 12//9 21//9 20//9 
o mesh9
f 18//10 20//10 22//10 
f 22//10 19//10 18//10 
o mesh10
f 11//11 1//11 23//11 
f 12//11 23//11 24//11 
f 24//11 21//11 12//11 
f 23//11 12//11 11//11 
o mesh11
f 23//12 7//12 25//12 
f 23//12 1//12 4//12 
f 4//12 7//12 23//12 
f 25//12 26//12 23//12 
o mesh12
f 20//13 21//13 24//13 
f 27//13 22//13 20//13 
f 24//13 27//13 20//13 
o mesh13
f 7//14 6//14 16//14 
f 28//14 25//14 7//14 
f 16//14 28//14 7//14 
o mesh14
f 19//15 22//15 28//15 
f 16//15 17//15 19//15 
f 28//15 16//15 19//15 
o mesh15
f 28//16 22//16 27//16 
f 27//16 26//16 28//16 
f 26//16 25//16 28//16 
o mesh16
f 27//17 24//17 23//17 
f 23//17 26//17 27//17 
